<?xml version="1.0" encoding="utf-8"?>
<!-- Generator: Adobe Illustrator 15.0.2, SVG Export Plug-In . SVG Version: 6.00 Build 0)  -->
<!DOCTYPE svg PUBLIC "-//W3C//DTD SVG 1.1//EN" "http://www.w3.org/Graphics/SVG/1.1/DTD/svg11.dtd">
<svg version="1.1" id="Layer_1" xmlns="http://www.w3.org/2000/svg" xmlns:xlink="http://www.w3.org/1999/xlink" x="0px" y="0px"
	 width="50px" height="30.835px" viewBox="25 15.417 50 30.835" enable-background="new 25 15.417 50 30.835" xml:space="preserve">
<path d="M75,40.946H25c0.003,3.617,2.762,5.296,4.981,5.307H70.02C72.668,46.242,74.988,44.16,75,40.946L75,40.946z"/>
<path d="M65.499,15.417H35.666v19.572c0.004,2.658,2.293,4.761,4.765,4.766h19.355c2.79-0.006,4.693-2.352,4.684-4.766v-1.623
	c5.523-0.005,9.531-4.152,9.529-8.987C74.001,19.458,70.072,15.414,65.499,15.417z M64.47,29.631V19.1h1.029
	c3.784-0.006,4.998,3.573,4.979,5.307C70.482,27.206,68.409,29.892,64.47,29.631z"/>
</svg>
